{
    "asset": {
        "version": "2.0",
        "generator": "Open Asset Import Library (assimp v5.4.0)"
    },
    "extensionsUsed": [
        "KHR_materials_volume",
        "FB_ngon_encoding"
    ],
    "accessors": [
        {
            "bufferView": 0,
            "byteOffset": 0,
            "componentType": 5126,
            "count": 512,
            "type": "VEC3",
            "max": [
                0.08021780848503113,
                0.08844953775405884,
                0.08584237098693848
            ],
            "min": [
                -0.08316043019294739,
                -0.07696998119354248,
                -0.07739520072937012
            ]
        },
        {
            "bufferView": 1,
            "byteOffset": 0,
            "componentType": 5126,
            "count": 512,
            "type": "VEC3",
            "max": [
                0.9924139380455017,
                0.9929173588752747,
                0.9978839159011841
            ],
            "min": [
                -0.9963339567184448,
                -0.9944158792495728,
                -0.9977771043777466
            ]
        },
        {
            "bufferView": 2,
            "byteOffset": 0,
            "componentType": 5125,
            "count": 564,
            "type": "SCALAR",
            "max": [
                511
            ],
            "min": [
                0
            ]
        },
        {
            "bufferView": 3,
            "byteOffset": 0,
            "componentType": 5126,
            "count": 1556,
            "type": "VEC3",
            "max": [
                0.07910872250795364,
                0.07991629838943481,
                0.08498311042785645
            ],
            "min": [
                -0.07103242725133896,
                -0.08446621894836426,
                -0.07624363899230957
            ]
        },
        {
            "bufferView": 4,
            "byteOffset": 0,
            "componentType": 5126,
            "count": 1556,
            "type": "VEC3",
            "max": [
                0.9986326098442078,
                0.998832643032074,
                0.9999838471412659
            ],
            "min": [
                -0.9998677968978882,
                -0.9968235492706299,
                -0.9929960370063782
            ]
        },
        {
            "bufferView": 5,
            "byteOffset": 0,
            "componentType": 5125,
            "count": 1590,
            "type": "SCALAR",
            "max": [
                1555
            ],
            "min": [
                0
            ]
        }
    ],
    "buffers": [
        {
            "byteLength": 58248,
            "uri": "Mercury_0.bin"
        }
    ],
    "bufferViews": [
        {
            "buffer": 0,
            "byteOffset": 0,
            "byteLength": 6144,
            "target": 34962
        },
        {
            "buffer": 0,
            "byteOffset": 6144,
            "byteLength": 6144,
            "target": 34962
        },
        {
            "buffer": 0,
            "byteOffset": 12288,
            "byteLength": 2256,
            "target": 34963
        },
        {
            "buffer": 0,
            "byteOffset": 14544,
            "byteLength": 18672,
            "target": 34962
        },
        {
            "buffer": 0,
            "byteOffset": 33216,
            "byteLength": 18672,
            "target": 34962
        },
        {
            "buffer": 0,
            "byteOffset": 51888,
            "byteLength": 6360,
            "target": 34963
        }
    ],
    "materials": [
        {
            "name": "mat19",
            "pbrMetallicRoughness": {
                "baseColorFactor": [
                    0.7400000095367432,
                    0.33000001311302185,
                    0.05999999865889549,
                    1.0
                ],
                "metallicFactor": 0.0
            }
        },
        {
            "name": "mat20",
            "pbrMetallicRoughness": {
                "baseColorFactor": [
                    0.1899999976158142,
                    0.09000000357627869,
                    0.05999999865889549,
                    1.0
                ],
                "metallicFactor": 0.0
            }
        }
    ],
    "meshes": [
        {
            "name": "meshes[0]",
            "primitives": [
                {
                    "mode": 4,
                    "material": 0,
                    "indices": 2,
                    "attributes": {
                        "POSITION": 0,
                        "NORMAL": 1
                    }
                }
            ]
        },
        {
            "name": "meshes[1]",
            "primitives": [
                {
                    "mode": 4,
                    "material": 1,
                    "indices": 5,
                    "attributes": {
                        "POSITION": 3,
                        "NORMAL": 4
                    }
                }
            ]
        }
    ],
    "nodes": [
        {
            "name": "Mercury",
            "children": [
                1
            ]
        },
        {
            "name": "Node",
            "children": [
                2,
                3
            ],
            "extras": {
                "name": "Node"
            }
        },
        {
            "name": "Node-Mesh",
            "mesh": 0
        },
        {
            "name": "Node-Mesh_1",
            "mesh": 1
        }
    ],
    "scenes": [
        {
            "nodes": [
                0
            ]
        }
    ],
    "scene": 0
}