{
    "asset": {
        "version": "2.0",
        "generator": "Open Asset Import Library (assimp v5.4.0)"
    },
    "extensionsUsed": [
        "KHR_materials_volume",
        "FB_ngon_encoding"
    ],
    "accessors": [
        {
            "bufferView": 0,
            "byteOffset": 0,
            "componentType": 5126,
            "count": 2251,
            "type": "VEC3",
            "max": [
                0.04974418133497238,
                0.01937486231327057,
                0.0704425647854805
            ],
            "min": [
                -0.04974418133497238,
                -0.00412531616166234,
                -0.0412190780043602
            ]
        },
        {
            "bufferView": 1,
            "byteOffset": 0,
            "componentType": 5126,
            "count": 2251,
            "type": "VEC3",
            "max": [
                1.0,
                1.0,
                1.0
            ],
            "min": [
                -1.0,
                -0.9999416470527649,
                -1.0
            ]
        },
        {
            "bufferView": 2,
            "byteOffset": 0,
            "componentType": 5126,
            "count": 2251,
            "type": "VEC2",
            "max": [
                0.07834302634000778,
                0.3595927357673645
            ],
            "min": [
                0.015657734125852585,
                0.3586205840110779
            ]
        },
        {
            "bufferView": 3,
            "byteOffset": 0,
            "componentType": 5125,
            "count": 4842,
            "type": "SCALAR",
            "max": [
                2250
            ],
            "min": [
                0
            ]
        }
    ],
    "buffers": [
        {
            "byteLength": 91400,
            "uri": "Spaceship_0.bin"
        }
    ],
    "bufferViews": [
        {
            "buffer": 0,
            "byteOffset": 0,
            "byteLength": 27012,
            "target": 34962
        },
        {
            "buffer": 0,
            "byteOffset": 27012,
            "byteLength": 27012,
            "target": 34962
        },
        {
            "buffer": 0,
            "byteOffset": 54024,
            "byteLength": 18008,
            "target": 34962
        },
        {
            "buffer": 0,
            "byteOffset": 72032,
            "byteLength": 19368,
            "target": 34963
        }
    ],
    "images": [
        {
            "uri": "ship_texture.png"
        }
    ],
    "materials": [
        {
            "name": "Atlas",
            "pbrMetallicRoughness": {
                "baseColorTexture": {
                    "index": 0
                },
                "metallicFactor": 0.4000000059604645
            }
        }
    ],
    "meshes": [
        {
            "name": "meshes[0]",
            "primitives": [
                {
                    "mode": 4,
                    "material": 0,
                    "indices": 3,
                    "attributes": {
                        "POSITION": 0,
                        "NORMAL": 1,
                        "TEXCOORD_0": 2
                    }
                }
            ]
        }
    ],
    "nodes": [
        {
            "name": "Spaceship",
            "children": [
                1
            ]
        },
        {
            "name": "RootNode",
            "children": [
                2
            ],
            "extras": {
                "name": "RootNode"
            }
        },
        {
            "name": "Spaceship_RaeTheRedPanda",
            "matrix": [
                100.0,
                0.0,
                0.0,
                0.0,
                0.0,
                100.0,
                0.000004371138857095502,
                0.0,
                0.0,
                -0.000004371138857095502,
                100.0,
                0.0,
                0.0,
                0.0,
                0.0,
                1.0
            ],
            "mesh": 0,
            "extras": {
                "name": "Spaceship_RaeTheRedPanda"
            }
        }
    ],
    "samplers": [
        {
            "magFilter": 9729,
            "minFilter": 9987
        }
    ],
    "scenes": [
        {
            "nodes": [
                0
            ]
        }
    ],
    "textures": [
        {
            "source": 0,
            "sampler": 0
        }
    ],
    "scene": 0
}